<svg width="56" height="56" viewBox="0 0 56 56" fill="none" xmlns="http://www.w3.org/2000/svg">
<path d="M54.3594 17.7188H29.5312V9.84375H31.7188V13.6719C31.7188 14.5779 32.4533 15.3125 33.3594 15.3125C34.2654 15.3125 35 14.5779 35 13.6719V8.20312C35 7.29706 34.2654 6.5625 33.3594 6.5625H29.5312V3.82812C29.5312 1.7173 27.814 0 25.7031 0H23.5156C21.4048 0 19.6875 1.7173 19.6875 3.82812V17.7188H16.2412C15.4791 13.979 12.1646 11.1562 8.20312 11.1562C3.67992 11.1562 0 14.8362 0 19.3594V47.7969C0 52.3201 3.67992 56 8.20312 56H47.5781C48.4842 56 49.2188 55.2654 49.2188 54.3594V49.4375H54.3594C55.2654 49.4375 56 48.7029 56 47.7969V19.3594C56 18.4533 55.2654 17.7188 54.3594 17.7188ZM22.9688 3.82812C22.9688 3.52658 23.2141 3.28125 23.5156 3.28125H25.7031C26.0047 3.28125 26.25 3.52658 26.25 3.82812V6.5625H22.9688V3.82812ZM22.9688 9.84375H26.25V27.0156C26.25 29.3614 25.6771 31.6921 24.6094 33.7737C23.5417 31.6921 22.9688 29.3614 22.9688 27.0156V9.84375ZM3.28125 19.3594C3.28125 16.6455 5.4892 14.4375 8.20312 14.4375C10.917 14.4375 13.125 16.6455 13.125 19.3594V41.2389C11.753 40.2066 10.0484 39.5938 8.20312 39.5938C6.35786 39.5938 4.65325 40.2066 3.28125 41.2389V19.3594ZM45.9375 52.7188H8.20312C5.4892 52.7188 3.28125 50.5108 3.28125 47.7969C3.28125 45.083 5.4892 42.875 8.20312 42.875C10.917 42.875 13.125 45.083 13.125 47.7969C13.125 48.7029 13.8596 49.4375 14.7656 49.4375H45.9375V52.7188ZM52.7188 46.1562H16.4062V21H19.6875V27.0156C19.6875 30.7081 20.8496 34.3695 22.9688 37.3898V39.0469C22.9688 39.9529 23.7033 40.6875 24.6094 40.6875C25.5154 40.6875 26.25 39.9529 26.25 39.0469V37.3898C28.3691 34.3695 29.5312 30.708 29.5312 27.0156V21H52.7188V46.1562Z" fill="#BA2F33"/>
</svg>
