<svg width="56" height="56" viewBox="0 0 56 56" fill="none" xmlns="http://www.w3.org/2000/svg">
<path d="M28.0731 41.8315H17.2172C16.3177 41.8315 15.5888 42.5604 15.5888 43.4599C15.5888 44.3594 16.3177 45.0883 17.2172 45.0883H28.0731C28.9726 45.0883 29.7014 44.3594 29.7014 43.4599C29.7014 42.5606 28.9724 41.8315 28.0731 41.8315Z" fill="#BA2F33"/>
<path d="M8.68035 25.4257H32.4178C33.3173 25.4257 34.0462 24.6968 34.0462 23.7973C34.0462 22.8978 33.3173 22.1689 32.4178 22.1689H8.68035C7.78083 22.1689 7.05197 22.8978 7.05197 23.7973C7.05197 24.6966 7.78105 25.4257 8.68035 25.4257Z" fill="#BA2F33"/>
<path d="M34.0464 31.456C34.0464 30.5565 33.3175 29.8276 32.418 29.8276H8.68035C7.78083 29.8276 7.05197 30.5565 7.05197 31.456C7.05197 32.3555 7.78083 33.0844 8.68035 33.0844H32.4178C33.3173 33.0844 34.0464 32.3555 34.0464 31.456Z" fill="#BA2F33"/>
<path d="M55.9053 10.5407C55.7143 9.83568 55.2568 9.25164 54.6167 8.896L51.9616 7.42025C51.5582 7.19597 51.0997 7.07742 50.6361 7.07742C49.6658 7.07742 48.7585 7.59221 48.2676 8.42116L40.9603 20.768V17.3527C40.9603 15.7287 40.0912 13.6407 38.9385 12.4962L30.6765 4.29419C29.5264 3.15237 27.4376 2.2915 25.8172 2.2915H3.79955C1.70459 2.2915 0 3.99609 0 6.09106V49.9088C0 52.0038 1.70459 53.7084 3.79955 53.7084H37.1607C39.2557 53.7084 40.9603 52.0038 40.9603 49.9088V37.3853L55.6233 12.6102C55.9961 11.9804 56.0962 11.2452 55.9053 10.5407ZM50.8161 10.5096L52.5213 11.4573L50.9405 14.1287L49.2353 13.181L50.8161 10.5096ZM36.1225 39.1654C35.9592 39.4409 35.4935 39.9017 35.2167 40.0612L34.1228 40.6922L34.0813 39.4301C34.0718 39.1448 34.2268 38.5395 34.3723 38.2941L47.5758 15.9847L49.2811 16.9324L36.1225 39.1654ZM36.345 14.5102H29.739C29.4448 14.5102 29.1962 14.2616 29.1962 13.9674V7.4133L36.345 14.5102ZM37.1607 50.4516H3.79955C3.50536 50.4516 3.25676 50.203 3.25676 49.9088V6.09084C3.25676 5.79665 3.50536 5.54805 3.79955 5.54805H25.8174C25.8567 5.54805 25.898 5.55044 25.9397 5.55304V13.9676C25.9397 16.0626 27.6443 17.7672 29.7392 17.7672H37.7037V26.2346C37.7037 26.2458 37.7053 26.2569 37.7055 26.268L31.5697 36.6351C31.1092 37.4131 30.7964 38.6339 30.8263 39.5376L30.9214 42.428C30.9631 43.708 31.9013 44.673 33.1035 44.673C33.5203 44.673 33.9476 44.5534 34.3384 44.3278L36.8442 42.8825C37.124 42.7209 37.4193 42.5008 37.7035 42.2502V49.9088C37.7035 50.203 37.4551 50.4516 37.1607 50.4516Z" fill="#BA2F33"/>
</svg>
