<svg width="56" height="58" viewBox="0 0 56 58" fill="none" xmlns="http://www.w3.org/2000/svg">
<g clip-path="url(#clip0)">
<path d="M51.0999 43.3441H46.8405V1.67708C46.8405 0.750886 46.1059 0 45.1999 0H4.90012C3.99405 0 3.25949 0.750886 3.25949 1.67708V49.5361C3.25949 53.7865 6.64224 57.2444 10.8002 57.2444H45.1999C49.3579 57.2444 52.7405 53.7864 52.7405 49.5361V45.0212C52.7405 44.095 52.0061 43.3441 51.0999 43.3441ZM15.0597 45.0212V49.5361C14.825 55.314 6.77327 55.3094 6.54074 49.5361V3.35417H43.5594V43.3441H16.7004C15.7943 43.3441 15.0597 44.095 15.0597 45.0212ZM49.4593 49.5361C49.4593 51.937 47.5485 53.8903 45.1999 53.8903H17.0198C17.853 52.6506 18.341 51.1505 18.341 49.5361V46.6983H49.4594V49.5361H49.4593Z" fill="#BA2F33"/>
<path d="M30.0927 13.612H37.5935C39.7703 13.5233 39.7687 10.3456 37.5935 10.2578H30.0927C27.9159 10.3465 27.9176 13.5242 30.0927 13.612Z" fill="#BA2F33"/>
<path d="M37.5935 17.8643H30.0927C27.9159 17.9529 27.9176 21.1307 30.0927 21.2184H37.5935C39.7703 21.1299 39.7687 17.9521 37.5935 17.8643Z" fill="#BA2F33"/>
<path d="M37.5935 25.4707H30.0927C27.9159 25.5594 27.9176 28.7371 30.0927 28.8249H37.5935C39.7703 28.7362 39.7687 25.5585 37.5935 25.4707Z" fill="#BA2F33"/>
<path d="M37.5935 33.0771H11.4673C9.29055 33.1658 9.29219 36.3435 11.4673 36.4313H37.5935C39.7703 36.3427 39.7687 33.1649 37.5935 33.0771Z" fill="#BA2F33"/>
<path d="M11.4673 28.8246H23.2582C24.1642 28.8246 24.8988 28.0737 24.8988 27.1476V25.7793C24.8988 23.1295 23.5822 20.7883 21.5828 19.4029C24.5189 15.8316 21.9686 10.237 17.3627 10.2579C12.7571 10.2369 10.2063 15.8325 13.1428 19.4029C11.1434 20.7883 9.82681 23.1295 9.82681 25.7793V27.1476C9.8267 28.0737 10.5613 28.8246 11.4673 28.8246ZM17.3627 13.6119C18.5721 13.6119 19.5559 14.6144 19.5559 15.8465C19.4356 18.8111 15.2894 18.8102 15.1695 15.8465C15.1696 14.6144 16.1534 13.6119 17.3627 13.6119ZM17.3573 21.4354H17.3682C19.6097 21.4354 21.4515 23.2187 21.6069 25.4705H13.1187C13.274 23.2187 15.1156 21.4354 17.3573 21.4354Z" fill="#BA2F33"/>
</g>
<defs>
<clipPath id="clip0">
<rect width="56" height="57.2444" fill="white"/>
</clipPath>
</defs>
</svg>
