<svg width="56" height="56" viewBox="0 0 56 56" fill="none" xmlns="http://www.w3.org/2000/svg">
    <path d="M8.3125 56H47.6875C48.5936 56 49.3281 55.2654 49.3281 54.3594V4.92188C49.3281 4.01581 48.5936 3.28125 47.6875 3.28125H36.2031V1.64062C36.2031 0.734562 35.4686 0 34.5625 0H21.4375C20.5314 0 19.7969 0.734562 19.7969 1.64062V3.28125H8.3125C7.40644 3.28125 6.67188 4.01581 6.67188 4.92188V54.3594C6.67188 55.2654 7.40644 56 8.3125 56ZM23.0781 3.28125H32.9219V6.5625H23.0781V3.28125ZM9.95312 6.5625H19.7969V8.20312C19.7969 9.10919 20.5314 9.84375 21.4375 9.84375H34.5625C35.4686 9.84375 36.2031 9.10919 36.2031 8.20312V6.5625H46.0469V52.7188H9.95312V6.5625Z" fill="#BA2F33"/>
    <path d="M37.8438 19.7969H32.9219V14.7656C32.9219 13.8596 32.1873 13.125 31.2812 13.125H24.7188C23.8127 13.125 23.0781 13.8596 23.0781 14.7656V19.7969H18.1562C17.2502 19.7969 16.5156 20.5314 16.5156 21.4375V28C16.5156 28.9061 17.2502 29.6406 18.1562 29.6406H23.0781V34.6719C23.0781 35.5779 23.8127 36.3125 24.7188 36.3125H31.2812C32.1873 36.3125 32.9219 35.5779 32.9219 34.6719V29.6406H37.8438C38.7498 29.6406 39.4844 28.9061 39.4844 28V21.4375C39.4844 20.5314 38.7498 19.7969 37.8438 19.7969ZM36.2031 26.3594H31.2812C30.3752 26.3594 29.6406 27.0939 29.6406 28V33.0312H26.3594V28C26.3594 27.0939 25.6248 26.3594 24.7188 26.3594H19.7969V23.0781H24.7188C25.6248 23.0781 26.3594 22.3436 26.3594 21.4375V16.4062H29.6406V21.4375C29.6406 22.3436 30.3752 23.0781 31.2812 23.0781H36.2031V26.3594Z" fill="#BA2F33"/>
    <path d="M37.8438 39.5938H24.7188C23.8127 39.5938 23.0781 40.3283 23.0781 41.2344C23.0781 42.1404 23.8127 42.875 24.7188 42.875H37.8438C38.7498 42.875 39.4844 42.1404 39.4844 41.2344C39.4844 40.3283 38.7498 39.5938 37.8438 39.5938Z" fill="#BA2F33"/>
    <path d="M18.1562 42.875C19.0623 42.875 19.7969 42.1405 19.7969 41.2344C19.7969 40.3283 19.0623 39.5938 18.1562 39.5938C17.2502 39.5938 16.5156 40.3283 16.5156 41.2344C16.5156 42.1405 17.2502 42.875 18.1562 42.875Z" fill="#BA2F33"/>
    <path d="M37.8438 46.1562H24.7188C23.8127 46.1562 23.0781 46.8908 23.0781 47.7969C23.0781 48.7029 23.8127 49.4375 24.7188 49.4375H37.8438C38.7498 49.4375 39.4844 48.7029 39.4844 47.7969C39.4844 46.8908 38.7498 46.1562 37.8438 46.1562Z" fill="#BA2F33"/>
    <path d="M18.1562 49.4375C19.0623 49.4375 19.7969 48.703 19.7969 47.7969C19.7969 46.8908 19.0623 46.1562 18.1562 46.1562C17.2502 46.1562 16.5156 46.8908 16.5156 47.7969C16.5156 48.703 17.2502 49.4375 18.1562 49.4375Z" fill="#BA2F33"/>
</svg>
