<svg width="20" height="14" viewBox="0 0 20 14" fill="none" xmlns="http://www.w3.org/2000/svg">
<mask id="mask0" style="mask-type:alpha" maskUnits="userSpaceOnUse" x="0" y="0" width="20" height="14">
<path d="M18.5714 0H1.42857C0.639593 0 0 0.624719 0 1.39535V12.5581C0 13.3288 0.639593 13.9535 1.42857 13.9535H18.5714C19.3604 13.9535 20 13.3288 20 12.5581V1.39535C20 0.624719 19.3604 0 18.5714 0Z" fill="white"/>
</mask>
<g mask="url(#mask0)">
<path d="M18.393 0.174316H1.60728C0.818304 0.174316 0.178711 0.799035 0.178711 1.56967V12.3836C0.178711 13.1542 0.818304 13.779 1.60728 13.779H18.393C19.182 13.779 19.8216 13.1542 19.8216 12.3836V1.56967C19.8216 0.799035 19.182 0.174316 18.393 0.174316Z" fill="white"/>
<path d="M19.9999 0H13.3333V13.9535H19.9999V0Z" fill="#F44653"/>
<path d="M6.66667 0H0V13.9535H6.66667V0Z" fill="#1035BB"/>
</g>
</svg>
